<svg width="21" height="13" viewBox="0 0 21 13" fill="none" xmlns="http://www.w3.org/2000/svg">
<path d="M20.524 1.06103C20.2877 1.80391 19.9692 2.45053 19.5702 3.03766L19.5869 3.01141C19.1949 3.66474 18.7267 4.41957 18.1825 5.27591C17.7158 5.95199 17.4688 6.30199 17.4414 6.32591C17.3206 6.47728 17.2366 6.66278 17.2078 6.86666L17.2069 6.87278C17.2305 7.05828 17.3162 7.22016 17.4414 7.34091L17.7914 7.73116C19.6639 9.65557 20.7171 10.9821 20.951 11.7107C20.9816 11.7912 20.9991 11.8839 20.9991 11.981C20.9991 12.1508 20.9449 12.3074 20.853 12.436L20.8547 12.4334C20.7007 12.5918 20.4855 12.6898 20.2475 12.6898C20.2212 12.6898 20.1941 12.6889 20.1687 12.6863H20.1723H17.8701C17.8692 12.6863 17.8675 12.6863 17.8657 12.6863C17.5709 12.6863 17.2996 12.583 17.087 12.4115L17.0896 12.4133C16.7799 12.1587 16.5042 11.883 16.2575 11.5838L16.2496 11.5733C15.8465 11.1177 15.489 10.7342 15.1769 10.4227C14.1374 9.43449 13.3703 8.94041 12.8756 8.94041C12.8572 8.93866 12.8362 8.93778 12.8144 8.93778C12.67 8.93778 12.5352 8.98241 12.4241 9.05853L12.4267 9.05678C12.3357 9.17053 12.2806 9.31753 12.2806 9.47591C12.2806 9.50741 12.2824 9.53716 12.2867 9.56778V9.56428C12.2631 9.83903 12.2491 10.1584 12.2491 10.4813C12.2491 10.5854 12.2509 10.6887 12.2535 10.7919V10.777V11.7912C12.2622 11.8323 12.2675 11.8795 12.2675 11.9277C12.2675 12.1394 12.1712 12.3284 12.0207 12.4535L12.0199 12.4544C11.6812 12.6093 11.2857 12.7003 10.8684 12.7003C10.7791 12.7003 10.6916 12.6959 10.605 12.688L10.6164 12.6889C9.23912 12.6627 7.96162 12.2593 6.87575 11.5794L6.90637 11.5969C5.58425 10.7937 4.48875 9.74803 3.654 8.51253L3.63037 8.47578C2.83762 7.42403 2.09825 6.23578 1.46825 4.98278L1.407 4.84803C1.03862 4.14628 0.657125 3.28353 0.328125 2.39628L0.275625 2.23441C0.14175 1.83541 0.0446245 1.37166 0.00437451 0.891282L0.00262451 0.869407C0.00262451 0.427241 0.262791 0.206157 0.783124 0.206157H3.08437C3.10537 0.204407 3.12987 0.203532 3.15525 0.203532C3.37225 0.203532 3.57262 0.277907 3.731 0.403032L3.72925 0.401282C3.90425 0.592907 4.03375 0.828282 4.09762 1.09078L4.10025 1.10128C4.52375 2.29741 4.97262 3.30191 5.48887 4.26441L5.43025 4.14453C5.852 4.99328 6.31837 5.72391 6.85037 6.39853L6.83025 6.37141C7.29692 6.94424 7.66092 7.23066 7.92225 7.23066C7.93012 7.23153 7.93975 7.23153 7.95025 7.23153C8.07975 7.23153 8.19262 7.16153 8.25387 7.05653L8.25475 7.05478C8.3195 6.88853 8.35712 6.69516 8.35712 6.49391C8.35712 6.45103 8.35537 6.40816 8.35187 6.36616V6.37141V2.97728C8.3335 2.57741 8.2355 2.20378 8.07187 1.86866L8.07887 1.88528C7.97037 1.65428 7.84 1.45478 7.68512 1.27716L7.68775 1.28066C7.54425 1.13716 7.44625 0.949032 7.41562 0.739032L7.41475 0.733782C7.41475 0.585032 7.483 0.451157 7.58975 0.363657L7.59062 0.362782C7.6965 0.265657 7.83825 0.207032 7.99312 0.207032H8.00012H11.6279C11.6471 0.204407 11.669 0.203532 11.6917 0.203532C11.8624 0.203532 12.0155 0.280532 12.117 0.401282L12.1179 0.402157C12.208 0.566657 12.2614 0.763532 12.2614 0.971782C12.2614 1.00503 12.2596 1.03741 12.257 1.06978V1.06541V5.59178C12.2552 5.61278 12.2544 5.63728 12.2544 5.66178C12.2544 5.82278 12.299 5.97416 12.376 6.10278L12.3742 6.09928C12.4381 6.19378 12.5449 6.25503 12.6656 6.25503H12.6665C12.8205 6.24453 12.9605 6.19378 13.0786 6.11328L13.076 6.11503C13.314 5.95141 13.5187 5.76503 13.6964 5.55416L13.6999 5.54978C14.231 4.94953 14.721 4.28628 15.148 3.58103L15.1821 3.51978C15.4831 3.02103 15.8086 2.40678 16.1035 1.77591L16.1577 1.64728L16.548 0.866782C16.6836 0.476532 17.0476 0.201782 17.4755 0.201782C17.4921 0.201782 17.5087 0.201782 17.5254 0.202657H17.5227H19.8249C20.4467 0.202657 20.68 0.488782 20.5249 1.06103H20.524Z" fill="#F0E3CA"/>
</svg>
